<svg xmlns="http://www.w3.org/2000/svg" version="1.1" xmlns:xlink="http://www.w3.org/1999/xlink" xmlns:svgjs="http://svgjs.dev/svgjs" width="1500" height="397" viewBox="0 0 1500 397"><g transform="matrix(1,0,0,1,-0.9090909090909918,-0.42846845965507896)"><svg viewBox="0 0 396 105" data-background-color="#ffffff" preserveAspectRatio="xMidYMid meet" height="397" width="1500" xmlns="http://www.w3.org/2000/svg" xmlns:xlink="http://www.w3.org/1999/xlink"><g id="tight-bounds" transform="matrix(1,0,0,1,0.2400000000000091,0.11332289235210169)"><svg viewBox="0 0 395.52 104.77335421529578" height="104.77335421529578" width="395.52"><g><svg viewBox="0 0 579.3655536426188 153.47409074620512" height="104.77335421529578" width="395.52"><g transform="matrix(1,0,0,1,183.8455536426188,44.57424303782316)"><svg viewBox="0 0 395.52 64.3256046705588" height="64.3256046705588" width="395.52"><g id="textblocktransform"><svg viewBox="0 0 395.52 64.3256046705588" height="64.3256046705588" width="395.52" id="textblock"><g><svg viewBox="0 0 395.52 64.3256046705588" height="64.3256046705588" width="395.52"><g transform="matrix(1,0,0,1,0,0)"><svg width="395.52" viewBox="4.3 -38.4 239.78 39" height="64.3256046705588" data-palette-color="#383d6b"><g class="wordmark-text-0" data-fill-palette-color="primary" id="text-0"><path d="M16.3 0.6Q13.4 0.6 10.25-0.15 7.1-0.9 4.3-2.2L4.3-2.2 4.3-6.95Q7.6-5.15 10.43-4.3 13.25-3.45 16-3.45L16-3.45Q19.45-3.45 21.35-5 23.25-6.55 23.25-9.25L23.25-9.25Q23.25-11.1 22.2-12.35 21.15-13.6 19.55-14.35 17.95-15.1 15.25-16L15.25-16Q12-17.1 10.03-18.1 8.05-19.1 6.65-20.95 5.25-22.8 5.25-25.75L5.25-25.75Q5.25-30.15 8.45-32.77 11.65-35.4 17.05-35.4L17.05-35.4Q22.3-35.4 26.7-33.15L26.7-33.15 26.7-28.55Q21.75-31.35 17.05-31.35L17.05-31.35Q13.6-31.35 11.65-29.98 9.7-28.6 9.7-26.2L9.7-26.2Q9.7-24.55 10.7-23.45 11.7-22.35 13.15-21.68 14.6-21 17.25-20.05L17.25-20.05Q20.55-18.95 22.65-17.9 24.75-16.85 26.23-14.85 27.7-12.85 27.7-9.7L27.7-9.7Q27.7-6.6 26.3-4.28 24.9-1.95 22.3-0.68 19.7 0.6 16.3 0.6L16.3 0.6ZM39-32Q37.6-32 36.72-32.9 35.85-33.8 35.85-35.2L35.85-35.2Q35.85-36.6 36.72-37.5 37.6-38.4 39-38.4L39-38.4Q40.4-38.4 41.27-37.5 42.15-36.6 42.15-35.2L42.15-35.2Q42.15-33.8 41.27-32.9 40.4-32 39-32L39-32ZM36.8-26.1L41.2-26.1 41.2 0 36.8 0 36.8-26.1ZM73.84 0L69.45 0 68.8-3.45Q67-1.45 64.75-0.45 62.5 0.55 59.7 0.55L59.7 0.55Q54.85 0.55 52.25-3.2 49.65-6.95 49.65-12.8L49.65-12.8Q49.65-16.8 51.07-19.95 52.5-23.1 55.17-24.9 57.85-26.7 61.55-26.7L61.55-26.7Q63.35-26.7 64.95-26.28 66.55-25.85 68.34-25.05L68.34-25.05 68.34-37.7 72.75-37.7 72.75-5.8 73.84 0ZM60.4-3.5Q62.8-3.5 64.67-4.48 66.55-5.45 68.34-7.35L68.34-7.35 68.34-21.7Q65.15-22.8 62-22.8L62-22.8Q58.35-22.8 56.37-20.03 54.4-17.25 54.4-12.9L54.4-12.9Q54.4-8.75 55.82-6.13 57.25-3.5 60.4-3.5L60.4-3.5ZM104.59-13.05L104.59-11.6 86.09-11.6Q86.49-7.75 88.67-5.48 90.84-3.2 94.59-3.2L94.59-3.2Q96.84-3.2 98.97-4.13 101.09-5.05 103.29-6.85L103.29-6.85 103.49-6.85 103.49-2.45Q101.29-0.85 99.14-0.13 96.99 0.6 94.54 0.6L94.54 0.6Q90.54 0.6 87.59-1.15 84.64-2.9 83.07-6.03 81.49-9.15 81.49-13.2L81.49-13.2Q81.49-17.05 82.92-20.13 84.34-23.2 86.99-24.95 89.64-26.7 93.19-26.7L93.19-26.7Q96.79-26.7 99.37-24.93 101.94-23.15 103.27-20.05 104.59-16.95 104.59-13.05L104.59-13.05ZM93.24-23.05Q90.14-23.05 88.29-20.8 86.44-18.55 86.09-15L86.09-15 100.04-15Q99.69-18.65 98.02-20.85 96.34-23.05 93.24-23.05L93.24-23.05ZM126.94-26.7Q130.64-26.7 132.54-24.43 134.44-22.15 134.44-18.1L134.44-18.1 134.44 0 130.04 0 130.04-17.5Q130.04-20 128.99-21.38 127.94-22.75 125.79-22.75L125.79-22.75Q123.34-22.75 121.67-21.95 119.99-21.15 117.94-19.35L117.94-19.35 117.94 0 113.54 0 113.54-20.3 112.44-26.1 116.84-26.1 117.54-22.45Q119.89-24.7 121.92-25.7 123.94-26.7 126.94-26.7L126.94-26.7ZM155.99 0.6Q150.29 0.6 147.09-3.13 143.89-6.85 143.89-13.05L143.89-13.05Q143.89-19.25 147.09-22.98 150.29-26.7 155.99-26.7L155.99-26.7Q161.69-26.7 164.89-22.98 168.09-19.25 168.09-13.05L168.09-13.05Q168.09-6.85 164.89-3.13 161.69 0.6 155.99 0.6L155.99 0.6ZM155.99-3.2Q159.64-3.2 161.49-5.9 163.34-8.6 163.34-13.05L163.34-13.05Q163.34-17.5 161.49-20.2 159.64-22.9 155.99-22.9L155.99-22.9Q152.34-22.9 150.51-20.2 148.69-17.5 148.69-13.05L148.69-13.05Q148.69-8.6 150.51-5.9 152.34-3.2 155.99-3.2L155.99-3.2ZM182.64-35.4L182.64-26.1 189.84-26.1 189.84-22.3 182.64-22.3 182.64-7.35Q182.64-5.5 183.46-4.38 184.29-3.25 185.89-3.25L185.89-3.25Q186.99-3.25 187.86-3.48 188.74-3.7 189.84-4.2L189.84-4.2 189.84-0.3Q188.69 0.25 187.64 0.43 186.59 0.6 185.09 0.6L185.09 0.6Q181.89 0.6 180.06-1.45 178.24-3.5 178.24-6.9L178.24-6.9 178.24-22.3 173.24-22.3 173.24-26.1 178.24-26.1 178.24-33.1 182.64-35.4ZM218.58-13.05L218.58-11.6 200.08-11.6Q200.48-7.75 202.66-5.48 204.83-3.2 208.58-3.2L208.58-3.2Q210.83-3.2 212.96-4.13 215.08-5.05 217.28-6.85L217.28-6.85 217.48-6.85 217.48-2.45Q215.28-0.85 213.13-0.13 210.98 0.6 208.53 0.6L208.53 0.6Q204.53 0.6 201.58-1.15 198.63-2.9 197.06-6.03 195.48-9.15 195.48-13.2L195.48-13.2Q195.48-17.05 196.91-20.13 198.33-23.2 200.98-24.95 203.63-26.7 207.18-26.7L207.18-26.7Q210.78-26.7 213.36-24.93 215.93-23.15 217.26-20.05 218.58-16.95 218.58-13.05L218.58-13.05ZM207.23-23.05Q204.13-23.05 202.28-20.8 200.43-18.55 200.08-15L200.08-15 214.03-15Q213.68-18.65 212.01-20.85 210.33-23.05 207.23-23.05L207.23-23.05ZM233.98 0.6Q231.58 0.6 229.26-0.13 226.93-0.85 224.88-2.2L224.88-2.2 224.88-6.8Q229.43-3.3 233.88-3.3L233.88-3.3Q236.48-3.3 238.08-4.38 239.68-5.45 239.68-7.25L239.68-7.25Q239.68-8.5 238.91-9.3 238.13-10.1 236.98-10.55 235.83-11 233.68-11.65L233.68-11.65Q231.03-12.4 229.31-13.13 227.58-13.85 226.38-15.28 225.18-16.7 225.18-19L225.18-19Q225.18-22.5 227.83-24.6 230.48-26.7 234.78-26.7L234.78-26.7Q239.08-26.7 242.58-24.45L242.58-24.45 242.58-20Q240.63-21.5 238.81-22.15 236.98-22.8 234.98-22.8L234.98-22.8Q232.48-22.8 231.03-21.9 229.58-21 229.58-19.4L229.58-19.4Q229.58-18.25 230.36-17.5 231.13-16.75 232.28-16.3 233.43-15.85 235.58-15.2L235.58-15.2Q238.28-14.4 239.98-13.68 241.68-12.95 242.88-11.48 244.08-10 244.08-7.65L244.08-7.65Q244.08-5.25 242.78-3.38 241.48-1.5 239.18-0.45 236.88 0.6 233.98 0.6L233.98 0.6Z" fill="#383d6b" data-fill-palette-color="primary"></path></g></svg></g></svg></g></svg></g></svg></g><g><svg viewBox="0 0 153.47409074620512 153.47409074620512" height="153.47409074620512" width="153.47409074620512"><g><svg></svg></g><g id="icon-0"><svg viewBox="0 0 153.47409074620512 153.47409074620512" height="153.47409074620512" width="153.47409074620512"><g><path d="M0 76.737c0-42.381 34.356-76.737 76.737-76.737 42.381 0 76.737 34.356 76.737 76.737 0 42.381-34.356 76.737-76.737 76.737-42.381 0-76.737-34.356-76.737-76.737zM76.737 147.673c39.177 0 70.936-31.759 70.936-70.936 0-39.177-31.759-70.936-70.936-70.936-39.177 0-70.936 31.759-70.936 70.936 0 39.177 31.759 70.936 70.936 70.936z" data-fill-palette-color="accent" fill="#383d6b" stroke="transparent"></path></g><g transform="matrix(1,0,0,1,35.21960449849894,35.21960449849894)"><svg viewBox="0 0 83.03488174920724 83.03488174920724" height="83.03488174920724" width="83.03488174920724"><g><svg xmlns="http://www.w3.org/2000/svg" xmlns:xlink="http://www.w3.org/1999/xlink" version="1.1" x="0" y="0" viewBox="13 14.674 72 72" enable-background="new 0 0 100 100" xml:space="preserve" height="83.03488174920724" width="83.03488174920724" class="icon-cg-0" data-fill-palette-color="accent" id="cg-0"><path d="M82.5 14.674h-66c-1.657 0-3.5 0.843-3.5 2.5v51.518l0.982 0.982H13.5l16.5 16.5v-0.482l0.982 0.982H82.5c1.657 0 2.5-1.843 2.5-3.5v-66C85 15.517 84.157 14.674 82.5 14.674zM27 78.449l-5.775-5.775H27V78.449zM82 83.674H32.225L30 81.449v-9.758c0-1.657-0.36-2.018-2.018-2.018h-9.758L16 67.449V17.674h66V83.674z" fill="#383d6b" data-fill-palette-color="accent"></path></svg></g></svg></g></svg></g></svg></g></svg></g><defs></defs></svg><rect width="395.52" height="104.77335421529578" fill="none" stroke="none" visibility="hidden"></rect></g></svg></g></svg>